HIERARCHY
ROOT Hips
{
    OFFSET 0.000000 0.000000 0.000000
    CHANNELS 6 Xposition Yposition Zposition Zrotation Xrotation Yrotation
    JOINT Spine
    {
        OFFSET -0.000000 7.236184 0.000000
        CHANNELS 3 Zrotation Xrotation Yrotation
        JOINT Spine1
        {
            OFFSET -0.000000 20.420147 0.000000
            CHANNELS 3 Zrotation Xrotation Yrotation
            JOINT Neck
            {
                OFFSET -0.000000 20.336288 1.848754
                CHANNELS 3 Zrotation Xrotation Yrotation
                JOINT Head
                {
                    OFFSET -0.000000 12.354461 -1.764923
                    CHANNELS 3 Zrotation Xrotation Yrotation
                    End Site
                    {
                        OFFSET -0.000000 22.061537 0.000000
                    }
                }
            }
            JOINT LeftShoulder
            {
                OFFSET 3.573296 18.396038 -0.314103
                CHANNELS 3 Zrotation Xrotation Yrotation
                JOINT LeftArm
                {
                    OFFSET 10.880760 0.000000 0.000000
                    CHANNELS 3 Zrotation Xrotation Yrotation
                    JOINT LeftForeArm
                    {
                        OFFSET 27.185530 0.000000 0.000000
                        CHANNELS 3 Zrotation Xrotation Yrotation
                        JOINT LeftHand
                        {
                            OFFSET 27.825975 0.000000 0.000000
                            CHANNELS 3 Zrotation Xrotation Yrotation
                            End Site
                            {
                                OFFSET 13.236923 0.000000 0.000000
                            }
                        }
                    }
                }
            }
            JOINT RightShoulder
            {
                OFFSET -3.474926 18.396038 -0.314103
                CHANNELS 3 Zrotation Xrotation Yrotation
                JOINT RightArm
                {
                    OFFSET -10.880760 0.000000 0.000000
                    CHANNELS 3 Zrotation Xrotation Yrotation
                    JOINT RightForeArm
                    {
                        OFFSET -27.185530 0.000000 0.000000
                        CHANNELS 3 Zrotation Xrotation Yrotation
                        JOINT RightHand
                        {
                            OFFSET -27.825975 0.000000 0.000000
                            CHANNELS 3 Zrotation Xrotation Yrotation
                            End Site
                            {
                                OFFSET -13.236923 0.000000 0.000000
                            }
                        }
                    }
                }
            }
        }
    }
    JOINT LeftUpLeg
    {
        OFFSET 8.824615 0.000000 0.000000
        CHANNELS 3 Zrotation Xrotation Yrotation
        JOINT LeftLeg
        {
            OFFSET -0.000000 -35.111282 0.000000
            CHANNELS 3 Zrotation Xrotation Yrotation
            JOINT LeftFoot
            {
                OFFSET -0.000000 -42.324711 0.000000
                CHANNELS 3 Zrotation Xrotation Yrotation
                JOINT LeftToeBase
                {
                    OFFSET -0.000000 -5.735999 13.236923
                    CHANNELS 3 Zrotation Xrotation Yrotation
                    End Site
                    {
                        OFFSET -0.000000 0.000000 3.529846
                    }
                }
            }
        }
    }
    JOINT RightUpLeg
    {
        OFFSET -8.824615 0.000000 0.000000
        CHANNELS 3 Zrotation Xrotation Yrotation
        JOINT RightLeg
        {
            OFFSET -0.000000 -35.111282 0.000000
            CHANNELS 3 Zrotation Xrotation Yrotation
            JOINT RightFoot
            {
                OFFSET -0.000000 -42.324711 0.000000
                CHANNELS 3 Zrotation Xrotation Yrotation
                JOINT RightToeBase
                {
                    OFFSET -0.000000 -5.735999 13.236923
                    CHANNELS 3 Zrotation Xrotation Yrotation
                    End Site
                    {
                        OFFSET -0.000000 0.000000 3.529846
                    }
                }
            }
        }
    }
}
MOTION
Frames:    9
Frame Time:    0.008333
-1.349813    80.694084    108.839104    3.758591    -9.405073    -172.914230    -0.103962    -8.544326    0.937317    6.780031    1.603127    0.850208    5.713606    9.234510    -5.992738    8.125170    4.111466    -5.744338    1.200081    15.299780    1.944116    -53.191975    32.980492    -28.856541    0.110589    -4.825429    -13.273482    20.806803    -4.815373    -0.014571    5.912729    17.226206    -10.490770    54.569675    25.323664    20.718760    -4.898849    -8.623542    18.734766    -25.046318    -7.060432    -3.461955    13.057763    -21.902340    3.646340    1.873161    30.025818    -0.124660    -8.363267    -14.584648    -12.968460    -0.412110    -0.779887    0.457455    -27.271145    -17.970966    -4.829836    3.657117    52.777260    4.903439    14.871352    1.333099    -8.931712    1.293719    -10.810345    -1.422391
-1.716599    80.771469    108.866356    3.816007    -9.244660    -172.740265    -0.106161    -8.484596    0.840589    6.794394    1.622568    0.752159    5.671048    9.408274    -6.059351    8.228794    4.141383    -5.793013    1.259580    15.211214    1.896099    -52.876339    32.795414    -28.844902    0.140004    -4.902211    -13.300650    20.858454    -4.894258    -0.044737    5.898853    17.226677    -10.502125    54.549469    25.502180    20.768414    -4.957522    -8.449472    18.876823    -25.095598    -6.870467    -3.452003    12.755623    -21.745808    3.451712    1.945121    29.934824    -0.470186    -8.117451    -14.664084    -12.701936    -0.368897    -0.760785    0.409473    -27.455238    -18.198868    -4.972739    3.396170    56.368393    5.561780    14.558780    1.332982    -8.883553    1.331660    -11.104755    -1.464834
-2.067620    80.840363    108.892632    3.871499    -9.086537    -172.566788    -0.108372    -8.431326    0.744718    6.803018    1.645532    0.654893    5.630641    9.583873    -6.122617    8.320360    4.179328    -5.840302    1.316267    15.126318    1.850368    -52.578094    32.586197    -28.817308    0.167275    -4.985175    -13.335111    20.895882    -4.978562    -0.069486    5.886053    17.226078    -10.516563    54.520763    25.689436    20.822008    -5.004051    -8.284336    19.021353    -25.131001    -6.691019    -3.445042    12.465793    -21.607071    3.268220    2.024708    29.870255    -0.811985    -7.896619    -14.739028    -12.455885    -0.329961    -0.751271    0.366248    -27.643932    -18.404316    -5.113538    3.075574    60.051704    6.277508    14.258322    1.311511    -8.809555    1.362011    -11.366063    -1.498887
-2.401512    80.900452    108.917877    3.927244    -8.934319    -172.400269    -0.107340    -8.387688    0.653576    6.805801    1.672362    0.562017    5.593964    9.758005    -6.181892    8.396993    4.225722    -5.886098    1.369043    15.045826    1.807811    -52.294792    32.359447    -28.777782    0.191966    -5.072857    -13.376910    20.921726    -5.066804    -0.088390    5.874546    17.223753    -10.533504    54.483555    25.884457    20.877327    -5.037818    -8.131395    19.167498    -25.150229    -6.525311    -3.442309    12.193686    -21.489603    3.102463    2.111185    29.834776    -1.144905    -7.703997    -14.810355    -12.235175    -0.295943    -0.752498    0.328490    -27.834761    -18.587030    -5.230659    2.704517    63.792324    7.042324    13.967869    1.263181    -8.721932    1.379358    -11.582541    -1.518539
-2.716743    80.951286    108.942200    3.984887    -8.791049    -172.247223    -0.100152    -8.355251    0.570780    6.802361    1.702330    0.477028    5.561868    9.928289    -6.236486    8.457764    4.280088    -5.929934    1.417548    14.970318    1.769407    -52.024464    32.123196    -28.730753    0.213863    -5.162595    -13.424841    20.939085    -5.156440    -0.102147    5.864217    17.220118    -10.552113    54.437771    26.085588    20.933289    -5.058338    -7.992118    19.313995    -25.151674    -6.374994    -3.444216    11.944245    -21.396564    2.959340    2.203069    29.831821    -1.463335    -7.543362    -14.879741    -12.043250    -0.266266    -0.765928    0.295557    -28.025501    -18.747566    -5.301875    2.305079    67.550423    7.839516    13.685733    1.181591    -8.637874    1.377063    -11.742144    -1.516427
-3.016267    80.992851    108.965996    4.045766    -8.656879    -172.111694    -0.084890    -8.334048    0.498252    6.792312    1.735284    0.401468    5.533712    10.095000    -6.286358    8.504193    4.342436    -5.971490    1.461844    14.898345    1.735076    -51.762955    31.881012    -28.677401    0.233682    -5.251488    -13.479095    20.951002    -5.244596    -0.111261    5.854650    17.215099    -10.571177    54.382824    26.294827    20.989567    -5.066957    -7.865119    19.461401    -25.133062    -6.238637    -3.450314    11.717374    -21.329235    2.838306    2.299292    29.865536    -1.763044    -7.416017    -14.950700    -11.880696    -0.239151    -0.791244    0.265470    -28.217691    -18.888666    -5.308517    1.905646    71.339317    8.651781    13.407018    1.060356    -8.571329    1.349916    -11.837798    -1.486779
-3.300109    81.024467    108.989609    4.109952    -8.532844    -171.998535    -0.060279    -8.322833    0.437947    6.774565    1.769482    0.337599    5.509451    10.257032    -6.331014    8.537658    4.412589    -6.010142    1.502174    14.830195    1.705784    -51.508953    31.637035    -28.620354    0.251231    -5.335207    -13.538305    20.959705    -5.327273    -0.117492    5.846349    17.209141    -10.589787    54.317665    26.513306    21.046127    -5.065310    -7.750153    19.608480    -25.091181    -6.116308    -3.458869    11.514231    -21.290035    2.737828    2.397412    29.941423    -2.035207    -7.323020    -15.027131    -11.749276    -0.212993    -0.826534    0.236449    -28.412056    -19.011721    -5.236347    1.553970    75.139458    9.437905    13.128576    0.896423    -8.532664    1.295927    -11.866214    -1.427386
-3.568488    81.045357    109.013283    4.176693    -8.418900    -171.911530    -0.026277    -8.319492    0.390992    6.748760    1.803738    0.286523    5.488234    10.413792    -6.369870    8.560231    4.489402    -6.044914    1.538386    14.764325    1.681489    -51.263130    31.394487    -28.558697    0.266221    -5.409621    -13.601376    20.967073    -5.400727    -0.122664    5.839223    17.202179    -10.606673    54.241165    26.743410    21.103453    -5.056159    -7.647131    19.753334    -25.022051    -6.008290    -3.467282    11.334694    -21.279943    2.655522    2.495173    30.063745    -2.272282    -7.262657    -15.112913    -11.649394    -0.186513    -0.868817    0.207069    -28.610037    -19.117250    -5.078314    1.330662    78.931068    10.122542    12.847163    0.690156    -8.527946    1.216069    -11.827815    -1.339339
-3.822403    81.054848    109.037399    4.245002    -8.314580    -171.853226    0.016516    -8.321442    0.357541    6.714472    1.836597    0.248714    5.470094    10.565220    -6.402426    8.572869    4.571500    -6.075067    1.570901    14.700143    1.662250    -51.026630    31.153093    -28.491945    0.278071    -5.470711    -13.666628    20.974487    -5.461502    -0.129422    5.833722    17.194826    -10.621064    54.151299    26.989433    21.163427    -5.043933    -7.556603    19.894005    -24.921385    -5.915040    -3.473495    11.177633    -21.299221    2.589031    2.590540    30.235353    -2.469974    -7.231088    -15.211379    -11.579313    -0.158647    -0.915252    0.176147    -28.813869    -19.206062    -4.834851    1.419974    82.704262    10.526173    12.556792    0.444325    -8.560166    1.113808    -11.727050    -1.226501
